HIERARCHY
ROOT Hips
{
	OFFSET	0.000000	0.000000	0.000000
	CHANNELS 6 Xposition Yposition Zposition Zrotation Xrotation Yrotation
	JOINT LeftHip
	{
		OFFSET	4.500000	0.000000	0.000000
		CHANNELS 3 Zrotation Xrotation Yrotation
		JOINT LeftKnee
		{
			OFFSET	0.000000	-14.500000	0.000000
			CHANNELS 3 Zrotation Xrotation Yrotation
			JOINT LeftAnkle
			{
				OFFSET	0.000000	-15.000000	0.000000
				CHANNELS 3 Zrotation Xrotation Yrotation
				End Site
				{
					OFFSET	0.000000	-4.000000	-2.500000
				}
			}
		}
	}
	JOINT RightHip
	{
		OFFSET	-4.750000	0.000000	0.000000
		CHANNELS 3 Zrotation Xrotation Yrotation
		JOINT RightKnee
		{
			OFFSET	0.000000	-14.500000	0.000000
			CHANNELS 3 Zrotation Xrotation Yrotation
			JOINT RightAnkle
			{
				OFFSET	0.000000	-15.000000	0.000000
				CHANNELS 3 Zrotation Xrotation Yrotation
				End Site
				{
					OFFSET	0.000000	-4.000000	-2.500000
				}
			}
		}
	}
	JOINT Chest
	{
		OFFSET	0.000000	3.000000	-1.000000
		CHANNELS 3 Zrotation Xrotation Yrotation
		JOINT LeftCollar
		{
			OFFSET	0.000000	16.000000	1.000000
			CHANNELS 3 Zrotation Xrotation Yrotation
			JOINT LeftShoulder
			{
				OFFSET	6.500000	0.000000	0.000000
				CHANNELS 3 Zrotation Xrotation Yrotation
				JOINT LeftElbow
				{
					OFFSET	0.000000	-9.000000	0.000000
					CHANNELS 3 Zrotation Xrotation Yrotation
					JOINT LeftWrist
					{
						OFFSET	0.000000	-9.500000	0.000000
						CHANNELS 3 Zrotation Xrotation Yrotation
						End Site
						{
							OFFSET	0.000000	-5.000000	0.000000
						}
					}
				}
			}
		}
		JOINT RightCollar
		{
			OFFSET	0.000000	16.000000	1.000000
			CHANNELS 3 Zrotation Xrotation Yrotation
			JOINT RightShoulder
			{
				OFFSET	-6.500000	0.000000	0.000000
				CHANNELS 3 Zrotation Xrotation Yrotation
				JOINT RightElbow
				{
					OFFSET	0.000000	-9.000000	0.000000
					CHANNELS 3 Zrotation Xrotation Yrotation
					JOINT RightWrist
					{
						OFFSET	0.000000	-9.500000	0.000000
						CHANNELS 3 Zrotation Xrotation Yrotation
						End Site
						{
							OFFSET	0.000000	-5.000000	0.000000
						}
					}
				}
			}
		}
		JOINT Neck
		{
			OFFSET	0.000000	16.000000	1.000000
			CHANNELS 3 Zrotation Xrotation Yrotation
			JOINT Head
			{
				OFFSET	0.000000	6.000000	0.000000
				CHANNELS 3 Zrotation Xrotation Yrotation
				End Site
				{
					OFFSET	0.000000	6.000000	0.000000
				}
			}
		}
	}
}
MOTION
Frames:    7
Frame Time: 0.016667
5.609380	32.551754	-2.680005	5.206851	7.754918	-42.531395	-14.670603	-9.918292	6.149193	3.000000	-9.077075	0.000000	8.653234	3.971746	35.856560	7.637617	7.632427	-0.703315	-3.000000	16.989046	0.000000	-1.648995	52.882675	-3.265977	6.856309	-2.952514	15.062963	-12.592758	3.538499	0.789926	7.050026	31.924690	36.636711	2.030304	-19.180336	-1.989839	37.425350	11.477459	-11.488564	-12.592758	3.538499	0.789926	-7.524941	5.413715	4.186127	-2.197372	-17.852041	4.935972	4.436512	2.160391	7.717296	-3.279952	14.859596	0.571323	12.718742	-16.737257	-6.832706	
5.614878	32.552097	-2.691005	5.215059	7.746127	-42.485779	-14.670603	-9.918292	6.149193	3.000000	-9.075602	0.000000	8.524808	3.877874	35.896603	7.637617	7.632427	-0.703315	-3.000000	16.989046	0.000000	-1.648995	52.882675	-3.265977	6.856309	-2.952514	15.062963	-12.592758	3.538499	0.789926	6.682035	31.890911	36.831211	2.029068	-19.213936	-1.990246	37.383869	11.662345	-11.507935	-12.592758	3.538499	0.789926	-7.524941	5.413715	4.186127	-2.197372	-17.852041	4.935972	4.436512	2.160391	7.717296	-3.478318	14.857625	0.605836	12.781268	-16.664139	-7.059633	
5.610305	32.553131	-2.698298	5.220740	7.740038	-42.454136	-14.670603	-9.918292	6.149193	3.000000	-9.075602	0.000000	8.524808	3.877874	35.896603	7.637617	7.632427	-0.703315	-3.000000	16.989046	0.000000	-1.830605	52.882187	-3.239284	6.856309	-2.952514	15.062963	-12.592758	3.538499	0.789926	6.436859	31.867809	36.960697	2.029068	-19.213936	-1.990246	37.383869	11.662345	-11.507935	-12.592758	3.538499	0.789926	-7.524941	5.413715	4.411713	-2.197372	-17.852041	4.935972	4.436512	2.160391	7.717296	-3.694209	15.000427	0.643531	13.085519	-16.699755	-7.258701	
5.604661	32.554405	-2.707294	5.227750	7.732521	-42.415119	-14.670603	-9.918292	6.149193	3.000000	-9.075602	0.000000	8.524808	3.877874	35.896603	7.637617	7.632427	-0.703315	-3.000000	16.989046	0.000000	-1.830605	52.882187	-3.239284	6.856309	-2.952514	15.062963	-12.592758	3.538499	0.789926	6.682035	31.890911	36.831211	2.023727	-19.358961	-1.992010	37.324352	11.404391	-11.463359	-12.592758	3.538499	0.789926	-7.524941	5.413715	4.411713	-2.197372	-17.852041	4.935972	4.436512	2.160391	7.717296	-3.943152	14.997638	0.686832	13.413428	-16.536839	-7.852547	
5.603870	32.554585	-2.708549	5.228734	7.731467	-42.409698	-14.670603	-9.918292	6.149193	3.000000	-9.075602	0.000000	8.524808	3.877874	35.896603	7.637617	7.632427	-0.703315	-3.000000	16.989046	0.000000	-1.830605	52.882187	-3.239284	6.856309	-2.952514	14.901831	-12.592758	3.538499	0.789926	6.682035	31.890911	36.831211	2.023727	-19.358961	-1.992010	37.324352	11.404391	-11.463359	-12.592758	3.538499	0.789926	-7.314532	5.414551	4.391860	-2.179874	-18.044682	4.941364	4.436512	2.160391	7.717296	-4.055531	15.093383	0.706482	13.784389	-16.635744	-8.121501	
5.601829	32.555042	-2.711807	5.231270	7.728735	-42.395618	-14.670603	-9.918292	6.149193	3.000000	-9.075602	0.000000	8.524808	3.877874	35.896603	7.637617	7.632427	-0.703315	-3.000000	16.989046	0.000000	-1.830605	52.882187	-3.239284	6.856309	-2.952514	14.901831	-12.592758	3.538499	0.789926	6.436859	31.867809	36.960697	2.023727	-19.358961	-1.992010	37.324352	11.404391	-11.463359	-12.592758	3.538499	0.789926	-7.314532	5.414551	4.391860	-2.179885	-18.044559	4.941360	4.277347	2.138709	7.737267	-4.205278	15.091566	0.732523	14.064176	-16.707024	-8.681320	
5.583967	32.557381	-2.718776	5.239672	7.720398	-42.372673	-14.670603	-9.918292	6.149193	3.000000	-9.077075	0.000000	8.653234	3.971746	35.856560	7.637617	7.632427	-0.703315	-3.000000	17.033010	0.000000	-1.840780	52.820202	-3.005533	6.856309	-2.952514	15.062963	-12.592758	3.538499	0.789926	6.464223	31.660379	36.963886	2.023727	-19.358961	-1.992010	37.482635	11.368969	-11.469471	-12.592758	3.538499	0.789926	-7.314532	5.414551	4.391860	-2.179885	-18.044559	4.941360	4.277347	2.138709	7.737267	-4.418805	15.186212	0.769766	14.216917	-16.928522	-9.458398	
